<svg height="595pt" preserveAspectRatio="xMidYMid meet" viewBox="0 0 595 595" width="595pt" xmlns="http://www.w3.org/2000/svg"><g transform="matrix(.1 0 0 -.1 0 595)"><path d="m2560 5400c-74-50-134-94-134-98 1-4 68-240 148-525l147-518-26-90c-14-50-39-124-55-165-43-107-128-274-141-274-5 0-8-4-4-10 3-5-3-18-15-30-11-11-17-20-13-20 5 0-1-7-11-15-11-8-16-15-10-15 5 0 1-7-9-14-10-8-17-16-15-19 8-13-126-179-137-169-5 4-5 2-2-4 13-22-284-291-306-277-6 3-7 2-4-4 8-13-175-126-308-189-242-115-502-185-793-214-57-5-111-14-120-20-10-5-14-10-9-10 12 0-22-60-35-60-6 0-9-3-5-6 8-9-31-84-44-84-6 0-7-4-4-10s1-10-5-10-8-4-5-10c3-5 1-10-6-10s-10-3-7-6c4-3-16-52-42-110-56-119-150-361-175-449-10-33-20-62-24-65-3-3-6-9-6-15 0-28-40-175-47-175-5 0-7-4-4-9s-3-53-14-106c-42-206-68-424-72-620l-3-130 137-3c76-1 138 1 138 5s2 64 4 133c3 69 5 138 5 154 2 115 82 567 102 574 5 2 6 8 3 13-7 13 77 279 88 279 5 0 7 4 4 9-8 12 14 71 26 71 5 0 7 4 4 9-9 14 107 265 134 291 3 3 6 12 8 20s14 34 28 57c23 39 27 42 81 48 290 34 612 135 880 275 61 32 114 56 117 52 3-3 6-1 6 5 0 13 49 46 67 46 7 0 10 4 8 8-3 4 1 9 8 12 6 2 49 32 94 65 44 33 84 59 87 56 3-2 4-1 2 2-3 3 30 36 72 74 69 60 147 144 224 237 14 18 29 29 33 25s5-2 4 3c-4 12 78 135 90 135 4 0 8 6 8 13 0 18 33 67 46 67 6 0 8 3 4 6-9 9 21 64 35 64 6 0 9 3 6 6-6 5 79 193 91 204 3 3 7 12 8 20 3 27 78 235 86 238 4 2 5 7 2 12-3 4 4 42 14 84l19 77-118 412c-64 227-116 413-115 415 4 5 279-178 287-191 4-7 8-8 8-3 0 4 11 1 25-8s78-46 142-82c65-36 121-71 125-77 4-7 8-9 8-4 0 4 44-15 98-42 53-27 122-59 152-71 30-13 63-30 72-38 20-17 163-12 438 14 85 8 180 17 210 20 172 14 755 120 958 173 39 10 74 16 77 11 2-4 12-50 22-101 13-71 17-144 17-299 0-235-15-329-82-525l-39-114 119-51c66-27 123-50 127-50 11 0 64 149 91 255 12 44 24 87 27 95s6 18 5 22 5 51 13 105c18 115 20 394 5 504-6 42-10 81-9 85 1 5 0 16-4 24-9 25-50 204-51 223 0 9-3 17-6 17-4 0-17 34-30 75-18 58-27 74-39 70-159-47-616-155-682-160-20-1-41-5-45-8-27-16-491-79-749-101-273-24-335-26-335-15 0 6-4 8-9 4-11-6-360 168-376 188-6 7-17 13-25 15-38 8-328 196-508 329-62 46-116 83-120 83s-68-41-142-90z"/><path d="m4440 3524c-58-69-104-131-103-138 1-6 29-87 63-179 252-695 389-1471 390-2199v-168h145 145v148c-1 536-80 1164-214 1694-43 166-142 496-172 567-8 19-13 35-12 36 2 1 127-49 278-112 151-62 283-114 293-116 14-2 28 24 67 117 28 66 50 125 50 131 0 7-11 17-24 23-63 28-785 322-793 322-4 0-56-57-113-126z"/><path d="m1460 1564c-36-7-103-32-150-55-210-104-330-316-330-584v-85h139 139l7 68c15 174 53 260 138 319 97 66 37 63 1246 63 975 1 1101-1 1141-15 134-47 205-161 225-363l7-72h144 144l-6 73c-18 230-78 379-201 503-68 69-186 134-281 153-37 8-401 11-1175 10-920 0-1134-3-1187-15z"/></g></svg>